<svg width="64" height="13" viewBox="0 0 64 13" fill="none" xmlns="http://www.w3.org/2000/svg">
<path d="M0.865331 12V0.593292H3.46268L3.50597 2.93091L3.00815 3.19064C3.15244 2.67117 3.43382 2.20221 3.85229 1.78374C4.27075 1.35085 4.76858 1.00454 5.34576 0.744803C5.92295 0.485068 6.51457 0.3552 7.12062 0.3552C7.98641 0.3552 8.70789 0.528357 9.28508 0.874672C9.8767 1.22099 10.3168 1.74046 10.6054 2.43308C10.9084 3.12571 11.0599 3.99149 11.0599 5.03044V12H8.39765V5.22524C8.39765 4.64805 8.31829 4.17187 8.15956 3.79669C8.00084 3.40709 7.75553 3.12571 7.42365 2.95255C7.09176 2.76497 6.68773 2.67839 6.21155 2.69282C5.82195 2.69282 5.4612 2.75775 5.12932 2.88762C4.81186 3.00306 4.53048 3.17621 4.28518 3.40709C4.0543 3.62354 3.86672 3.87606 3.72242 4.16465C3.59255 4.45325 3.52762 4.7707 3.52762 5.11701V12H2.2073C1.94756 12 1.70226 12 1.47138 12C1.25493 12 1.05292 12 0.865331 12ZM17.713 12.2164C16.775 12.2164 15.9237 11.9567 15.1589 11.4372C14.3941 10.9178 13.7808 10.2107 13.3191 9.31607C12.8573 8.42142 12.6265 7.40413 12.6265 6.26418C12.6265 5.12423 12.8573 4.10693 13.3191 3.21229C13.7808 2.31765 14.4085 1.6178 15.2022 1.11276C15.9958 0.607721 16.8905 0.3552 17.8861 0.3552C18.4633 0.3552 18.99 0.441779 19.4662 0.614936C19.9423 0.773663 20.3608 1.00454 20.7216 1.30756C21.0823 1.61059 21.3781 1.9569 21.609 2.3465C21.8543 2.73611 22.0202 3.15457 22.1068 3.60189L21.5224 3.45038V0.593292H24.2063V12H21.5008V9.27278L22.1285 9.16456C22.0274 9.55416 21.8399 9.93655 21.5657 10.3117C21.306 10.6725 20.9741 10.9971 20.57 11.2857C20.1804 11.5599 19.7403 11.7836 19.2497 11.9567C18.7735 12.1299 18.2613 12.2164 17.713 12.2164ZM18.4489 9.85718C19.0693 9.85718 19.6177 9.70567 20.0939 9.40265C20.57 9.09962 20.938 8.68116 21.1977 8.14726C21.4719 7.59893 21.609 6.97124 21.609 6.26418C21.609 5.57155 21.4719 4.95829 21.1977 4.42439C20.938 3.89049 20.57 3.47202 20.0939 3.169C19.6177 2.86598 19.0693 2.71446 18.4489 2.71446C17.8284 2.71446 17.2801 2.86598 16.8039 3.169C16.3421 3.47202 15.9814 3.89049 15.7216 4.42439C15.4619 4.95829 15.332 5.57155 15.332 6.26418C15.332 6.97124 15.4619 7.59893 15.7216 8.14726C15.9814 8.68116 16.3421 9.09962 16.8039 9.40265C17.2801 9.70567 17.8284 9.85718 18.4489 9.85718ZM30.9508 12.2164C30.0129 12.2164 29.1615 11.9567 28.3968 11.4372C27.632 10.9178 27.0187 10.2107 26.557 9.31607C26.0952 8.42142 25.8643 7.40413 25.8643 6.26418C25.8643 5.12423 26.0952 4.10693 26.557 3.21229C27.0187 2.31765 27.6464 1.6178 28.4401 1.11276C29.2337 0.607721 30.1283 0.3552 31.124 0.3552C31.7012 0.3552 32.2279 0.441779 32.704 0.614936C33.1802 0.773663 33.5987 1.00454 33.9594 1.30756C34.3202 1.61059 34.616 1.9569 34.8469 2.3465C35.0922 2.73611 35.2581 3.15457 35.3447 3.60189L34.7603 3.45038V0.593292H37.4442V12H34.7386V9.27278L35.3663 9.16456C35.2653 9.55416 35.0777 9.93655 34.8036 10.3117C34.5438 10.6725 34.212 10.9971 33.8079 11.2857C33.4183 11.5599 32.9782 11.7836 32.4876 11.9567C32.0114 12.1299 31.4992 12.2164 30.9508 12.2164ZM31.6867 9.85718C32.3072 9.85718 32.8556 9.70567 33.3317 9.40265C33.8079 9.09962 34.1759 8.68116 34.4356 8.14726C34.7098 7.59893 34.8469 6.97124 34.8469 6.26418C34.8469 5.57155 34.7098 4.95829 34.4356 4.42439C34.1759 3.89049 33.8079 3.47202 33.3317 3.169C32.8556 2.86598 32.3072 2.71446 31.6867 2.71446C31.0663 2.71446 30.5179 2.86598 30.0418 3.169C29.58 3.47202 29.2193 3.89049 28.9595 4.42439C28.6998 4.95829 28.5699 5.57155 28.5699 6.26418C28.5699 6.97124 28.6998 7.59893 28.9595 8.14726C29.2193 8.68116 29.58 9.09962 30.0418 9.40265C30.5179 9.70567 31.0663 9.85718 31.6867 9.85718ZM39.8814 12V0.593292H42.5004L42.5437 4.22959L42.1758 3.40709C42.3345 2.8299 42.6086 2.31043 42.9982 1.84868C43.3879 1.38693 43.8352 1.02618 44.3402 0.766448C44.8597 0.492283 45.4008 0.3552 45.9636 0.3552C46.2089 0.3552 46.4397 0.376845 46.6562 0.420134C46.8871 0.463424 47.0747 0.513928 47.2189 0.571647L46.5047 3.49367C46.3459 3.40709 46.1511 3.33494 45.9203 3.27722C45.6894 3.2195 45.4585 3.19064 45.2276 3.19064C44.8669 3.19064 44.5206 3.26279 44.1887 3.40709C43.8712 3.53696 43.5899 3.72454 43.3446 3.96985C43.0993 4.21516 42.9045 4.50375 42.7602 4.83563C42.6303 5.15309 42.5654 5.51383 42.5654 5.91786V12H39.8814ZM52.1634 12.2164C51.2255 12.2164 50.3741 11.9567 49.6093 11.4372C48.8445 10.9178 48.2313 10.2107 47.7695 9.31607C47.3078 8.42142 47.0769 7.40413 47.0769 6.26418C47.0769 5.12423 47.3078 4.10693 47.7695 3.21229C48.2313 2.31765 48.859 1.6178 49.6526 1.11276C50.4462 0.607721 51.3409 0.3552 52.3365 0.3552C52.9137 0.3552 53.4404 0.441779 53.9166 0.614936C54.3928 0.773663 54.8112 1.00454 55.172 1.30756C55.5327 1.61059 55.8285 1.9569 56.0594 2.3465C56.3047 2.73611 56.4707 3.15457 56.5572 3.60189L55.9728 3.45038V0.593292H58.6568V12H55.9512V9.27278L56.5789 9.16456C56.4779 9.55416 56.2903 9.93655 56.0161 10.3117C55.7564 10.6725 55.4245 10.9971 55.0205 11.2857C54.6309 11.5599 54.1908 11.7836 53.7002 11.9567C53.224 12.1299 52.7117 12.2164 52.1634 12.2164ZM52.8993 9.85718C53.5198 9.85718 54.0681 9.70567 54.5443 9.40265C55.0205 9.09962 55.3884 8.68116 55.6482 8.14726C55.9223 7.59893 56.0594 6.97124 56.0594 6.26418C56.0594 5.57155 55.9223 4.95829 55.6482 4.42439C55.3884 3.89049 55.0205 3.47202 54.5443 3.169C54.0681 2.86598 53.5198 2.71446 52.8993 2.71446C52.2788 2.71446 51.7305 2.86598 51.2543 3.169C50.7926 3.47202 50.4318 3.89049 50.1721 4.42439C49.9123 4.95829 49.7825 5.57155 49.7825 6.26418C49.7825 6.97124 49.9123 7.59893 50.1721 8.14726C50.4318 8.68116 50.7926 9.09962 51.2543 9.40265C51.7305 9.70567 52.2788 9.85718 52.8993 9.85718ZM62.1113 12.2381C61.5918 12.2381 61.1878 12.0866 60.8992 11.7836C60.625 11.4805 60.4879 11.0549 60.4879 10.5065C60.4879 10.0015 60.6322 9.59023 60.9208 9.27278C61.2239 8.9409 61.6207 8.77495 62.1113 8.77495C62.6308 8.77495 63.0276 8.92647 63.3017 9.22949C63.5903 9.51808 63.7346 9.94376 63.7346 10.5065C63.7346 11.0116 63.5831 11.43 63.2801 11.7619C62.9915 12.0794 62.6019 12.2381 62.1113 12.2381Z" fill="#65B1CB"/>
</svg>
